<?xml version="1.0" standalone="no"?><!DOCTYPE svg PUBLIC "-//W3C//DTD SVG 1.1//EN" "http://www.w3.org/Graphics/SVG/1.1/DTD/svg11.dtd"><svg t="1698724583925" class="icon" viewBox="0 0 1024 1024" version="1.1" xmlns="http://www.w3.org/2000/svg" p-id="4048" width="32" height="32" xmlns:xlink="http://www.w3.org/1999/xlink"><path d="M584 296c0-44.1-35.9-80-80-80s-80 35.9-80 80 35.9 80 80 80 80-35.9 80-80z" fill="#000000" p-id="4049"></path><path d="M512 960c247 0 448-201 448-448S759 64 512 64c-1.80000001 0-3.5 0.1-5.3 0.1-0.9 0-1.8-0.1-2.7-0.1l1e-8 0.2C260.7 68.5 64 267.7 64 512c0 236.20000001 183.7 430.1 415.7 446.7 0.8 0.1 1.6 0.1 2.3 0.2 4.6 0.4 9.3 0.50000001 13.9 0.7 2.7 0.1 5.3 0.4 8 0.4l0-0.2c2.8 0 5.4 0.2 8.1 0.2z m-8-152c-44.1 0-80-35.9-80-80s35.9-80 80-80 80 35.9 80 80-35.9 80-80 80zM96.00000001 512C96 284.4 279.7 99 506.7 96.09999999 615.7 97.60000001 704 186.6 704 296c0 110.29999999-89.7 200-200 200-127.89999999 0-232 104.1-232 232 0 62.9 25.2 119.9 66 161.7-142.7-66-242-210.4-241.99999999-377.7z" fill="#000000" p-id="4050"></path></svg>