<?xml version="1.0" standalone="no"?><!DOCTYPE svg PUBLIC "-//W3C//DTD SVG 1.1//EN" "http://www.w3.org/Graphics/SVG/1.1/DTD/svg11.dtd"><svg t="1698100824199" class="icon" viewBox="0 0 1024 1024" version="1.1" xmlns="http://www.w3.org/2000/svg" p-id="24160" width="61" height="61" xmlns:xlink="http://www.w3.org/1999/xlink"><path d="M469.333333 850.688A341.504 341.504 0 0 1 173.312 554.666667H106.666667a21.333333 21.333333 0 0 1-21.333334-21.333334v-42.666666a21.333333 21.333333 0 0 1 21.333334-21.333334h66.645333A341.504 341.504 0 0 1 469.333333 173.312V106.666667a21.333333 21.333333 0 0 1 21.333334-21.333334h42.666666a21.333333 21.333333 0 0 1 21.333334 21.333334v66.645333A341.504 341.504 0 0 1 850.688 469.333333H917.333333a21.333333 21.333333 0 0 1 21.333334 21.333334v42.666666a21.333333 21.333333 0 0 1-21.333334 21.333334h-66.645333A341.504 341.504 0 0 1 554.666667 850.688V917.333333a21.333333 21.333333 0 0 1-21.333334 21.333334h-42.666666a21.333333 21.333333 0 0 1-21.333334-21.333334v-66.645333zM512 768a256 256 0 1 0 0-512 256 256 0 0 0 0 512z m0-128a128 128 0 1 1 0-256 128 128 0 0 1 0 256z" fill="#057add" p-id="24161"></path></svg>